<svg width="489" height="617" viewBox="0 0 489 617" fill="none" xmlns="http://www.w3.org/2000/svg">
<path d="M144.203 574.912C143.614 576.09 142.435 577.564 140.667 579.331C138.899 581.099 137.426 582.278 136.247 582.867C135.658 582.867 135.069 583.162 134.479 583.751C133.89 584.341 133.301 584.635 132.711 584.635C132.711 583.457 132.417 580.51 131.827 575.796C131.238 571.081 130.649 568.134 130.059 566.956C129.47 566.956 127.997 566.366 125.64 565.188C123.872 564.009 122.693 563.42 122.104 563.42C122.104 562.241 122.398 560.768 122.988 559C123.577 557.232 123.577 556.053 122.988 555.464C122.988 554.875 121.809 553.991 119.452 552.812C117.094 551.634 115.916 550.75 115.916 550.16C115.327 549.571 115.327 547.214 115.916 543.088C116.505 538.963 116.8 536.311 116.8 535.133C116.8 534.543 116.21 533.659 115.032 532.481C113.853 530.713 113.264 529.239 113.264 528.061C113.264 527.471 112.085 526.293 109.728 524.525C107.371 522.757 106.192 521.578 106.192 520.989V514.801V512.149C106.192 510.971 106.192 510.381 106.192 510.381C106.781 509.792 107.076 509.203 107.076 508.613C108.255 509.792 110.023 511.265 112.38 513.033C114.737 514.801 116.505 515.98 117.684 516.569L119.452 517.453H122.104L125.64 515.685C126.818 515.096 127.702 514.801 128.292 514.801C128.881 514.801 129.47 514.506 130.059 513.917H132.711C133.301 513.328 134.479 512.738 136.247 512.149C138.605 511.56 140.078 510.971 140.667 510.381C141.257 511.56 141.846 513.033 142.435 514.801C143.024 516.569 143.614 517.748 144.203 518.337H145.971H146.855C148.034 518.337 149.507 518.337 151.275 518.337C153.632 517.748 155.106 516.864 155.695 515.685C155.695 516.864 155.989 518.337 156.579 520.105C157.757 521.284 158.641 522.462 159.231 523.641C159.82 524.82 160.115 529.239 160.115 536.901C160.115 543.972 160.409 548.098 160.999 549.276C161.588 549.866 162.177 551.339 162.767 553.696C163.356 555.464 163.945 556.937 164.535 558.116C166.303 559.884 167.776 560.768 168.954 560.768C168.954 559.589 168.954 556.348 168.954 551.044C169.544 545.151 169.838 541.026 169.838 538.669C169.838 538.079 170.133 536.901 170.722 535.133C171.901 533.365 172.785 532.186 173.374 531.597C173.374 531.007 173.964 529.239 175.142 526.293C176.91 522.757 177.794 520.694 177.794 520.105H179.562C180.152 520.694 180.741 520.989 181.33 520.989C182.509 520.989 185.455 521.873 190.17 523.641C195.474 524.82 198.715 525.704 199.894 526.293H203.43H204.314C204.314 525.704 204.608 524.82 205.198 523.641C206.376 522.462 207.26 521.873 207.85 521.873H209.617C210.207 521.873 210.796 522.168 211.385 522.757C212.564 522.757 214.037 524.23 215.805 527.177C215.805 527.766 216.1 528.945 216.689 530.713C217.868 532.481 218.457 533.659 218.457 534.249C219.047 533.659 220.225 532.481 221.993 530.713C224.35 528.355 225.824 527.177 226.413 527.177H229.065L230.833 528.061C231.422 528.061 232.601 528.65 234.369 529.829C236.137 530.418 237.61 530.713 238.789 530.713H239.673H241.441L250.28 516.569C249.691 517.158 249.691 518.042 250.28 519.221C251.459 519.81 252.343 520.4 252.932 520.989L254.7 521.873H256.468C257.058 521.873 257.352 521.578 257.352 520.989C259.71 520.4 264.719 518.632 272.38 515.685C280.63 512.149 285.934 509.792 288.292 508.613C289.47 509.203 291.238 510.087 293.595 511.265C296.542 511.855 298.605 512.149 299.783 512.149L301.551 513.917C302.73 515.096 303.319 515.685 303.319 515.685C303.908 515.685 304.498 515.39 305.087 514.801C306.266 513.622 306.855 513.033 306.855 513.033L308.623 509.497C309.212 508.319 309.507 507.435 309.507 506.845C309.507 506.256 309.802 505.667 310.391 505.077C310.98 505.077 311.864 504.783 313.043 504.193C314.222 503.015 315.106 502.131 315.695 501.541C316.873 501.541 319.231 501.247 322.767 500.657C326.303 499.479 328.66 498.89 329.838 498.89C330.428 498.3 331.606 497.711 333.374 497.122C335.732 496.532 337.205 495.943 337.794 495.354C338.384 495.354 340.152 495.059 343.098 494.47C346.634 493.291 348.697 492.702 349.286 492.702C351.054 492.702 352.527 492.407 353.706 491.818C354.885 491.228 355.768 490.639 356.358 490.05C357.536 488.871 359.01 486.808 360.778 483.862C363.135 480.915 364.608 479.147 365.198 478.558C366.966 476.79 370.796 473.254 376.689 467.95C383.172 462.057 387.592 458.227 389.949 456.459L396.137 453.807C396.726 453.807 397.315 453.512 397.905 452.923C399.083 451.744 399.967 451.155 400.557 451.155C401.735 449.387 403.798 446.735 406.745 443.199C410.28 439.074 412.638 436.422 413.816 435.243C413.816 434.064 414.111 433.18 414.7 432.591C415.879 431.413 416.468 430.529 416.468 429.939C417.647 428.761 418.531 426.993 419.12 424.635C419.71 422.278 420.594 419.921 421.772 417.564C422.951 415.206 424.129 412.849 425.308 410.492C425.897 409.313 425.897 407.545 425.308 405.188C424.719 402.241 424.424 400.179 424.424 399C423.835 399 423.54 399 423.54 399C424.129 398.411 424.129 398.116 423.54 398.116C422.361 398.705 420.594 399.884 418.236 401.652C416.468 402.831 415.584 403.125 415.584 402.536C413.816 401.357 411.754 399.295 409.396 396.348C407.039 393.401 405.271 391.339 404.093 390.16L397.021 396.348C395.842 396.348 393.78 394.875 390.833 391.928C388.476 388.982 386.708 387.214 385.529 386.624C384.94 385.446 384.35 383.972 383.761 382.204C383.172 379.847 382.877 378.374 382.877 377.785C383.466 377.785 384.645 377.49 386.413 376.901C388.181 376.311 389.36 375.427 389.949 374.249L390.833 371.597C390.244 371.597 389.949 371.302 389.949 370.713V368.945V367.177C389.949 365.998 389.36 363.052 388.181 358.337C387.592 355.98 387.297 353.917 387.297 352.149L380.225 351.265C380.815 350.087 380.815 347.729 380.225 344.193C380.225 340.068 380.225 337.416 380.225 336.238C380.815 334.47 380.52 330.639 379.341 324.746C378.752 318.853 378.457 315.022 378.457 313.254C378.457 313.254 377.868 312.959 376.689 312.37L374.921 313.254C373.153 315.022 371.68 315.906 370.501 315.906C369.323 317.674 368.439 320.915 367.85 325.63C367.26 330.344 366.376 333.586 365.198 335.354C365.198 337.122 364.903 341.541 364.314 348.613C364.314 355.096 364.314 359.516 364.314 361.873L360.778 365.409C359.599 364.23 358.126 361.578 356.358 357.453C354.59 353.328 353.706 350.676 353.706 349.497C353.706 348.908 353.117 348.024 351.938 346.845C351.349 345.667 350.759 345.077 350.17 345.077C350.17 345.667 349.581 347.14 348.402 349.497C347.223 351.265 346.339 352.444 345.75 353.033C345.161 354.212 344.277 356.864 343.098 360.989C341.919 364.525 341.33 366.882 341.33 368.061C340.152 367.471 338.089 365.704 335.142 362.757C332.785 359.221 331.606 356.864 331.606 355.685C330.428 353.917 330.722 350.381 332.49 345.077C334.258 339.773 335.142 336.238 335.142 334.47C334.553 334.47 333.374 334.175 331.606 333.586C330.428 332.996 329.249 332.996 328.071 333.586C326.892 334.175 324.829 335.943 321.883 338.89C318.936 341.247 317.168 342.72 316.579 343.309L313.043 345.077C312.454 345.667 311.864 345.961 311.275 345.961C311.275 345.961 310.98 346.256 310.391 346.845L309.507 347.729C308.328 348.319 306.56 350.381 304.203 353.917C302.435 357.453 300.962 360.105 299.783 361.873V363.641L298.899 365.409C299.489 365.998 300.373 368.65 301.551 373.365C302.73 377.49 303.024 380.142 302.435 381.32C303.024 381.32 303.319 382.204 303.319 383.972C303.908 385.74 304.203 386.919 304.203 387.508H293.595C293.595 386.919 293.301 385.74 292.711 383.972C292.122 381.615 291.533 380.436 290.943 380.436C290.943 379.258 290.354 378.079 289.175 376.901C287.997 375.722 287.113 375.133 286.524 375.133L285.64 386.624C284.461 386.624 282.693 386.33 280.336 385.74C278.568 384.562 277.094 383.383 275.916 382.204C275.326 382.204 274.737 381.91 274.148 381.32C273.559 380.142 272.969 379.552 272.38 379.552C272.969 378.374 272.675 376.311 271.496 373.365C270.907 370.418 270.317 368.355 269.728 367.177C269.139 366.587 267.371 364.23 264.424 360.105C262.067 355.98 260.299 353.033 259.12 351.265L255.584 347.729H253.816H251.164C249.986 347.729 247.923 348.319 244.977 349.497C242.619 350.087 241.146 350.381 240.557 350.381C239.378 351.56 237.905 353.033 236.137 354.801C234.369 355.98 233.19 357.158 232.601 358.337C232.601 358.926 231.717 360.694 229.949 363.641C228.77 365.998 228.181 367.766 228.181 368.945C228.181 369.534 227.592 370.713 226.413 372.481C225.234 374.249 224.645 375.722 224.645 376.901C224.056 376.901 223.172 377.49 221.993 378.669C221.404 379.258 220.52 379.552 219.341 379.552V376.901C219.341 376.311 219.341 376.017 219.341 376.017C219.931 375.427 220.225 374.838 220.225 374.249V368.945C220.225 368.355 220.815 367.177 221.993 365.409C223.761 363.052 224.94 361.578 225.529 360.989C224.94 359.81 223.761 358.042 221.993 355.685C220.225 352.739 218.752 350.676 217.573 349.497C216.395 350.087 214.332 351.855 211.385 354.801C209.028 357.158 207.555 358.926 206.966 360.105C206.376 360.694 205.492 362.168 204.314 364.525C203.135 366.293 202.546 367.471 202.546 368.061C201.367 368.061 199.304 368.945 196.358 370.713C193.411 372.481 191.349 373.954 190.17 375.133C189.581 375.133 188.991 375.427 188.402 376.017C187.813 376.606 186.929 377.195 185.75 377.785C184.571 378.963 183.393 379.847 182.214 380.436C182.214 380.436 181.625 380.436 180.446 380.436H178.678C177.5 381.026 174.848 381.615 170.722 382.204C166.597 382.794 164.24 383.088 163.651 383.088H161.883H160.115C158.936 383.088 156.284 381.91 152.159 379.552C148.034 377.195 145.382 375.722 144.203 375.133C143.614 375.133 141.846 374.543 138.899 373.365C136.542 372.186 134.774 371.597 133.595 371.597C133.006 370.418 132.417 368.355 131.827 365.409C131.238 362.462 130.943 360.4 130.943 359.221C130.943 358.632 129.175 356.274 125.64 352.149C122.693 347.435 120.925 344.488 120.336 343.309C119.746 342.72 118.862 341.836 117.684 340.657C117.094 338.89 116.8 337.416 116.8 336.238C116.21 335.059 115.621 332.702 115.032 329.166C115.032 325.041 114.737 322.389 114.148 321.21V313.254C113.559 313.254 112.969 312.076 112.38 309.718C111.791 307.361 111.201 306.182 110.612 306.182C110.023 305.004 109.433 301.762 108.844 296.459C108.844 291.155 108.844 287.913 108.844 286.735V279.663V277.011C108.844 276.422 109.139 275.832 109.728 275.243C110.317 274.654 112.085 273.475 115.032 271.707C117.978 269.939 119.746 268.761 120.336 268.171C121.514 266.993 122.988 265.814 124.756 264.635C127.113 263.457 128.292 262.573 128.292 261.983C128.881 260.805 130.354 257.564 132.711 252.26C135.658 246.956 137.426 244.009 138.015 243.42C138.015 241.652 138.899 239.884 140.667 238.116L142.435 239H145.971C145.971 239.589 146.855 240.473 148.623 241.652C150.98 242.831 152.159 243.715 152.159 244.304H155.695C156.284 244.304 156.579 244.599 156.579 245.188C157.168 245.188 157.757 245.188 158.347 245.188H160.115C161.293 244.599 163.651 243.42 167.187 241.652C171.312 239.884 173.964 238.705 175.142 238.116C175.732 237.527 176.91 237.527 178.678 238.116C180.446 238.705 181.625 238.705 182.214 238.116C183.393 237.527 185.455 236.348 188.402 234.58C191.349 232.812 193.411 231.634 194.59 231.044C195.179 231.044 196.358 231.634 198.126 232.812C200.483 233.401 201.956 233.991 202.546 234.58H204.314C204.903 235.169 205.492 235.464 206.082 235.464C206.671 234.875 207.26 233.107 207.85 230.16C208.439 227.214 209.323 225.74 210.501 225.74C210.501 224.562 212.564 224.562 216.689 225.74C220.815 226.33 223.466 226.624 224.645 226.624C224.645 226.035 224.94 225.446 225.529 224.856C226.118 224.267 226.413 223.972 226.413 223.972C226.413 223.383 226.708 222.794 227.297 222.204L229.065 218.669L237.021 210.713C237.61 210.713 239.378 210.418 242.325 209.829C245.271 208.65 247.334 208.061 248.513 208.061H250.28L252.048 208.945C252.638 208.945 253.227 210.123 253.816 212.481C254.406 214.249 255.29 215.427 256.468 216.017C256.468 217.785 257.352 217.785 259.12 216.017C259.71 215.427 260.594 214.838 261.772 214.249L262.656 202.757C263.245 202.757 264.424 203.052 266.192 203.641C268.549 203.641 270.317 203.052 271.496 201.873C272.675 201.284 274.148 200.105 275.916 198.337C277.684 195.98 278.862 194.506 279.452 193.917C280.041 193.917 281.809 193.622 284.756 193.033C288.292 192.444 290.649 191.855 291.827 191.265C292.417 191.265 294.774 189.792 298.899 186.845C303.024 183.309 305.676 181.247 306.855 180.657C308.034 180.068 310.686 178.89 314.811 177.122C318.936 175.354 321.588 174.175 322.767 173.586C323.356 173.586 325.124 173.88 328.071 174.47C331.606 175.059 333.669 175.059 334.258 174.47C334.848 174.47 336.026 172.407 337.794 168.282C340.152 164.157 341.919 161.505 343.098 160.326C343.098 159.147 343.393 158.263 343.982 157.674C344.571 157.085 345.161 157.085 345.75 157.674H349.286C349.286 157.674 350.17 156.79 351.938 155.022L353.706 153.254L355.474 123.199L353.706 121.431C353.117 120.842 352.527 120.547 351.938 120.547C351.938 120.547 351.643 120.252 351.054 119.663C351.054 119.074 349.875 119.074 347.518 119.663C345.75 119.663 344.866 119.368 344.866 118.779C343.687 118.19 342.214 117.011 340.446 115.243C338.678 113.475 337.794 112.002 337.794 110.823C336.616 112.002 334.258 113.77 330.722 116.127C327.776 118.484 326.008 120.252 325.419 121.431C324.24 122.02 322.767 123.788 320.999 126.735C319.82 129.681 318.641 131.449 317.463 132.039C316.284 133.217 314.811 134.101 313.043 134.691C311.275 135.28 310.096 135.575 309.507 135.575C309.507 134.985 308.918 133.807 307.739 132.039C307.15 130.271 306.56 129.092 305.971 128.503H305.087H303.319C302.14 129.092 300.962 130.271 299.783 132.039C299.194 133.807 298.31 134.691 297.131 134.691C296.542 135.28 295.953 135.575 295.363 135.575H292.711C291.533 135.575 290.354 135.575 289.175 135.575C287.997 134.985 287.113 134.691 286.524 134.691C285.345 134.101 283.577 132.923 281.22 131.155C278.862 129.387 277.094 127.913 275.916 126.735C275.326 126.735 274.443 125.556 273.264 123.199C272.675 120.842 272.38 119.368 272.38 118.779H271.496H269.728C269.139 118.779 268.844 118.484 268.844 117.895C267.665 119.074 266.487 119.958 265.308 120.547L261.772 122.315H253.816C253.227 122.315 252.638 122.315 252.048 122.315C251.459 121.726 250.575 121.431 249.396 121.431H245.861C245.271 121.431 243.503 120.547 240.557 118.779C237.61 117.011 235.547 116.127 234.369 116.127C232.012 116.127 227.002 116.127 219.341 116.127C211.68 115.538 206.671 114.948 204.314 114.359C204.314 113.77 204.019 112.591 203.43 110.823C202.84 109.055 202.251 107.877 201.662 107.287C201.072 107.287 200.778 106.993 200.778 106.403C200.778 105.814 200.483 105.519 199.894 105.519C199.894 105.519 199.894 105.225 199.894 104.635L198.126 102.867H194.59H191.938C191.349 102.867 190.759 102.573 190.17 101.983C188.991 103.162 186.929 105.225 183.982 108.171C181.036 110.529 179.268 112.297 178.678 113.475C179.268 112.297 178.384 110.823 176.026 109.055C173.669 106.698 171.901 105.519 170.722 105.519C170.722 105.519 170.428 105.225 169.838 104.635L168.071 105.519C166.892 105.519 165.419 106.403 163.651 108.171C161.883 109.35 160.704 110.529 160.115 111.707L134.479 110.823C134.479 111.413 133.595 112.297 131.827 113.475C130.649 114.654 129.765 114.948 129.175 114.359H119.452H115.032C113.853 114.359 112.675 114.064 111.496 113.475C110.907 113.475 110.023 112.886 108.844 111.707C108.255 110.529 107.665 109.645 107.076 109.055C106.487 109.055 105.308 108.761 103.54 108.171C102.361 106.993 101.183 106.109 100.004 105.519C99.4149 104.93 98.2363 104.635 96.4683 104.635C95.2897 104.635 94.4057 104.93 93.8164 105.519C93.8164 106.109 94.111 107.877 94.7004 110.823C95.879 113.18 95.879 114.948 94.7004 116.127C94.7004 116.716 93.2271 117.895 90.2805 119.663C87.3339 121.431 85.2713 122.61 84.0926 123.199C82.914 124.378 81.146 126.44 78.7888 129.387C77.0208 131.744 76.1368 133.217 76.1368 133.807C75.5475 134.396 75.2528 135.28 75.2528 136.459V140.878C75.2528 140.878 75.2528 142.352 75.2528 145.298V148.834C75.2528 150.013 75.2528 152.37 75.2528 155.906C75.8422 159.442 76.7261 162.094 77.9048 163.862C77.9048 165.041 78.1994 167.103 78.7888 170.05C79.9674 172.996 80.5567 175.059 80.5567 176.238L81.4407 178.89C81.4407 179.479 81.146 179.774 80.5567 179.774C80.5567 179.774 80.5567 180.068 80.5567 180.657V182.425C79.9674 183.604 78.4941 185.667 76.1368 188.613C74.3689 191.56 73.1902 193.328 72.6009 193.917L80.5567 254.912C80.5567 256.09 80.8514 257.564 81.4407 259.331C82.6193 260.51 83.5033 261.689 84.0926 262.867V304.414C84.0926 305.593 83.798 307.95 83.2086 311.486C82.6193 315.022 82.03 318.853 81.4407 322.978C81.4407 327.103 81.146 331.228 80.5567 335.354C79.9674 338.89 79.6727 340.952 79.6727 341.541C79.0834 341.541 78.7888 341.836 78.7888 342.425V344.193V345.961C78.7888 347.729 79.0834 349.497 79.6727 351.265L81.4407 356.569C81.4407 357.748 81.146 360.4 80.5567 364.525C80.5567 368.65 80.5567 371.007 80.5567 371.597C80.5567 372.775 80.5567 376.017 80.5567 381.32C80.5567 386.624 80.5567 392.518 80.5567 399C80.5567 404.893 80.5567 410.492 80.5567 415.796C81.146 420.51 81.4407 423.457 81.4407 424.635C81.4407 425.225 81.146 426.993 80.5567 429.939C80.5567 432.297 80.5567 434.948 80.5567 437.895C80.5567 440.842 80.262 443.788 79.6727 446.735C79.6727 449.092 79.6727 450.565 79.6727 451.155C79.6727 451.744 79.9674 453.512 80.5567 456.459C81.7353 458.816 82.6193 460.878 83.2086 462.646C83.798 463.236 84.3873 464.414 84.9766 466.182C85.5659 467.95 85.8606 469.129 85.8606 469.718C87.0392 471.486 87.9232 474.433 88.5125 478.558C89.6911 482.683 90.2805 485.041 90.2805 485.63C90.2805 486.219 89.3965 487.398 87.6285 489.166C86.4499 490.934 85.5659 491.818 84.9766 491.818C84.9766 492.996 83.798 496.238 81.4407 501.541C79.6727 506.845 78.1994 510.087 77.0208 511.265C75.8422 512.444 73.1902 514.801 69.065 518.337C64.9398 521.873 62.2878 524.23 61.1092 525.409C59.9306 526.587 58.7519 529.239 57.5733 533.365C56.984 536.901 56.6893 539.258 56.6893 540.436L48.7335 539.552C48.7335 537.195 48.4389 532.186 47.8495 524.525C47.2602 516.864 46.9656 511.855 46.9656 509.497C46.9656 508.908 45.1976 507.14 41.6617 504.193C38.7151 501.247 35.1792 498.3 31.054 495.354C26.9287 491.818 23.0981 488.871 19.5622 486.514C16.6156 483.567 15.1423 481.799 15.1423 481.21C14.553 480.031 13.9637 477.674 13.3744 474.138C12.7851 470.013 12.4904 467.361 12.4904 466.182C12.4904 465.004 12.4904 462.352 12.4904 458.227C13.0797 454.101 13.3744 451.744 13.3744 451.155C13.3744 449.976 12.7851 446.735 11.6064 441.431C11.0171 436.127 11.0171 432.886 11.6064 431.707C11.6064 431.118 11.6064 429.055 11.6064 425.519C11.6064 421.983 11.6064 418.448 11.6064 414.912C12.1958 410.786 12.4904 407.25 12.4904 404.304C13.0797 400.768 13.3744 398.705 13.3744 398.116C13.3744 397.527 13.0797 396.053 12.4904 393.696C12.4904 390.75 12.1958 387.803 11.6064 384.856C11.6064 381.91 11.3118 379.258 10.7225 376.901C10.1331 373.954 9.83848 371.891 9.83848 370.713L10.7225 367.177V364.525C11.3118 363.346 12.7851 362.168 15.1423 360.989C17.4996 359.221 18.6783 358.042 18.6783 357.453V353.033L12.4904 352.149C12.4904 350.971 12.4904 347.435 12.4904 341.541C13.0797 335.059 13.0797 331.228 12.4904 330.05C12.4904 329.46 11.9011 328.871 10.7225 328.282C10.1331 327.103 9.54382 326.219 8.95451 325.63C8.36519 325.63 7.18655 325.335 5.41859 324.746C3.65064 323.567 2.472 322.978 1.88268 322.978V320.326V318.558C2.472 317.969 3.35598 316.495 4.53462 314.138C5.71325 311.781 6.89189 309.424 8.07053 307.066C9.83848 304.709 11.3118 302.352 12.4904 299.994C13.6691 297.637 14.2584 296.164 14.2584 295.575C14.2584 294.985 14.553 294.396 15.1423 293.807C15.1423 293.217 15.1423 292.923 15.1423 292.923C15.7317 292.923 16.0263 292.628 16.0263 292.039C16.0263 292.039 15.7317 291.449 15.1423 290.271V288.503C14.553 289.092 13.3744 289.681 11.6064 290.271C9.83848 290.86 8.65985 291.449 8.07053 292.039C7.48121 292.628 6.89189 292.923 6.30257 292.923H3.65064L0.114726 291.155C1.29336 289.976 2.76666 286.735 4.53462 281.431C6.89189 275.538 8.36519 271.707 8.95451 269.939C8.95451 268.761 8.65985 267.287 8.07053 265.519C8.07053 263.751 8.36519 262.573 8.95451 261.983L0.998704 261.099V259.331C0.998704 258.153 1.29336 257.564 1.88268 257.564C2.472 256.385 4.23996 252.849 7.18655 246.956C10.7225 241.063 13.0797 237.527 14.2584 236.348C14.8477 235.169 14.8477 234.285 14.2584 233.696C13.6691 232.518 13.6691 231.634 14.2584 231.044H5.41859C5.41859 229.866 5.41859 227.508 5.41859 223.972C6.00791 219.847 6.59723 215.722 7.18655 211.597C7.77587 206.882 8.07053 202.757 8.07053 199.221C8.65985 195.096 8.95451 192.149 8.95451 190.381C8.95451 189.792 9.83848 188.024 11.6064 185.077C13.3744 182.131 14.2584 180.068 14.2584 178.89V171.818C14.8477 170.639 15.1423 169.166 15.1423 167.398C15.1423 165.63 15.1423 164.451 15.1423 163.862C14.553 163.273 13.0797 160.326 10.7225 155.022C8.9545 149.718 8.07053 146.477 8.07053 145.298C7.48121 144.709 7.18655 143.825 7.18655 142.646C7.18655 140.878 7.48121 139.7 8.07053 139.111C8.65985 139.111 10.1331 139.111 12.4904 139.111C14.8477 138.521 16.321 138.227 16.9103 138.227C16.9103 137.637 17.205 137.048 17.7943 136.459C18.9729 135.28 19.8569 134.396 20.4462 133.807V132.039C20.4462 131.449 20.4462 131.155 20.4462 131.155C21.0355 131.155 21.3302 130.86 21.3302 130.271C21.3302 130.271 21.0355 129.681 20.4462 128.503V126.735C20.4462 126.146 20.1516 124.672 19.5622 122.315C18.9729 119.958 18.0889 117.6 16.9103 115.243C16.321 112.297 15.7317 109.939 15.1423 108.171C14.553 105.814 14.2584 104.341 14.2584 103.751C14.2584 102.573 14.553 100.215 15.1423 96.6796C16.321 92.5544 16.9103 89.9024 16.9103 88.7238H8.95451C8.36519 87.5451 7.77587 84.8932 7.18655 80.768C6.59723 76.6428 5.71325 73.9908 4.53462 72.8122L2.76666 67.5083C2.17734 65.7403 1.88268 63.9724 1.88268 62.2044V53.3646V48.9448C1.88268 47.7661 2.17734 46.8822 2.76666 46.2929C3.35598 45.7035 6.89189 45.4089 13.3744 45.4089C19.8569 44.8195 23.3928 44.5249 23.9821 44.5249C24.5714 44.5249 26.0447 44.8195 28.402 45.4089C30.7593 45.4089 33.1166 45.4089 35.4738 45.4089C38.4204 45.4089 40.7777 45.7035 42.5457 46.2929C44.9029 46.2929 46.3762 46.2929 46.9656 46.2929C47.5549 45.1142 49.0282 42.4623 51.3854 38.337C53.7427 33.6225 55.216 31.2652 55.8053 31.2652C56.3947 30.6759 57.2786 30.0866 58.4573 29.4973C60.8145 28.3186 62.2878 27.7293 62.8772 27.7293L65.5291 26.8453L66.4131 27.7293C67.5917 28.908 69.3597 30.9706 71.7169 33.9172C74.0742 36.8637 75.8422 38.9263 77.0208 40.105L105.308 15.3536C106.487 15.9429 107.665 16.5322 108.844 17.1216C110.612 17.7109 111.496 18.3002 111.496 18.8895C112.675 18.8895 114.737 18.8895 117.684 18.8895C121.22 18.8895 123.282 19.1842 123.872 19.7735C123.872 20.3628 124.166 20.9521 124.756 21.5415C125.934 22.7201 126.524 23.3094 126.524 23.3094C127.113 24.4881 127.702 25.9614 128.292 27.7293C129.47 29.4973 130.354 30.6759 130.943 31.2652C131.533 31.8545 132.122 32.1492 132.711 32.1492H136.247H141.551C142.141 31.5599 142.73 30.9705 143.319 30.3812C144.498 29.2026 145.382 28.6133 145.971 28.6133C145.971 27.4347 145.971 25.6667 145.971 23.3094C145.971 20.3628 146.266 18.3002 146.855 17.1216C147.444 15.3536 148.328 13.291 149.507 10.9337C151.275 8.57646 152.748 7.10316 153.927 6.51382C155.106 5.3352 157.757 4.7459 161.883 4.7459C166.008 4.7459 168.66 4.7459 169.838 4.7459L168.071 22.4254C169.249 21.2468 171.901 19.4788 176.026 17.1216C180.152 14.7643 183.098 13.291 184.866 12.7017C186.045 11.523 188.991 10.3444 193.706 9.16575C198.42 7.3978 201.956 6.21917 204.314 5.62986C204.314 5.04055 205.198 4.7459 206.966 4.7459C206.376 5.92451 206.082 7.98712 206.082 10.9337C206.671 13.291 206.966 15.059 206.966 16.2376C206.966 17.4162 207.26 18.8895 207.85 20.6575C208.439 22.4254 209.028 23.6041 209.617 24.1934L211.385 25.0774H214.037C214.627 24.4881 216.395 23.3094 219.341 21.5415C222.877 19.7735 225.234 18.5949 226.413 18.0055L229.065 15.3536C229.654 14.175 229.949 12.1123 229.949 9.16575C230.538 6.21918 230.538 4.15657 229.949 2.97793C231.128 3.56724 232.306 4.45121 233.485 5.62986C234.664 6.21917 235.842 6.80849 237.021 7.39783C237.021 7.98713 237.315 8.28179 237.905 8.28179H239.673L240.557 7.39783C241.735 6.80849 242.914 5.62984 244.093 3.86189C245.271 2.09394 245.861 0.915305 245.861 0.325998C246.45 0.915305 247.629 2.68326 249.396 5.62986C251.164 8.57646 252.048 10.6391 252.048 11.8177C252.638 12.9963 252.343 15.3536 251.164 18.8895C249.986 22.4254 249.396 24.7827 249.396 25.9613C249.396 26.5507 249.691 26.8453 250.28 26.8453H252.048H254.7C255.29 26.256 255.879 25.9613 256.468 25.9613C257.647 25.372 258.531 24.7827 259.12 24.1934C260.299 23.0148 261.772 20.6575 263.54 17.1216C265.308 12.9963 266.781 10.3444 267.96 9.16575H270.612C270.612 10.3444 270.612 12.9963 270.612 17.1216C270.612 20.6575 270.317 23.0148 269.728 24.1934C269.728 25.372 270.317 28.024 271.496 32.1492C272.675 36.2744 273.264 38.9263 273.264 40.105C274.443 38.9263 276.505 37.7477 279.452 36.5691C282.398 34.8012 284.461 33.3279 285.64 32.1492C286.818 32.7385 287.997 33.0332 289.175 33.0332C291.533 33.0332 292.711 33.0332 292.711 33.0332C293.301 33.0332 293.89 32.7385 294.479 32.1492C295.069 30.9706 295.658 30.0866 296.247 29.4973C296.837 28.9079 297.721 27.7293 298.899 25.9613C300.078 23.6041 300.962 22.1308 301.551 21.5415C302.14 20.9521 303.614 20.0682 305.971 18.8895C308.918 17.1216 310.98 15.9429 312.159 15.3536H314.811H316.579C317.168 15.9429 318.052 17.4162 319.231 19.7735C320.999 22.1308 322.472 23.3094 323.651 23.3094H331.606C332.196 23.3094 333.08 24.7827 334.258 27.7293C336.026 30.0866 337.205 31.5599 337.794 32.1492C338.973 32.1492 341.33 32.7385 344.866 33.9172C348.991 34.5065 351.643 34.8011 352.822 34.8011L351.938 42.7569C353.117 42.7569 355.179 42.4623 358.126 41.873C361.072 40.6943 362.84 40.3996 363.43 40.989C364.019 41.5783 365.198 43.0516 366.966 45.4089C368.733 47.7661 370.207 48.9448 371.385 48.9448C371.385 49.5341 372.269 50.1234 374.037 50.7127C376.395 51.3021 377.868 51.8914 378.457 52.4807C378.457 53.6593 378.752 54.5433 379.341 55.1326C379.341 55.722 379.341 56.0166 379.341 56.0166C379.931 56.0166 380.225 56.3113 380.225 56.9006C380.225 57.4899 380.52 57.7845 381.109 57.7845C381.698 58.9632 382.582 60.1418 383.761 61.3205C385.529 62.4991 387.002 63.9724 388.181 65.7403C389.949 68.0976 391.422 70.1602 392.601 71.9282L391.717 75.4641V79.884C391.717 81.0626 390.833 83.1253 389.065 86.0719C387.886 89.0185 387.297 90.7864 387.297 91.3757V94.9116V99.3315L389.065 101.099C389.654 101.689 390.244 101.983 390.833 101.983L394.369 102.867C395.547 104.046 397.905 106.698 401.441 110.823C405.566 114.948 408.218 117.895 409.396 119.663C409.986 119.074 411.459 118.484 413.816 117.895C416.763 116.716 418.826 115.832 420.004 115.243H422.656H423.54C424.719 116.422 426.192 117.6 427.96 118.779C430.317 119.368 431.496 119.958 431.496 120.547C431.496 121.136 432.38 122.904 434.148 125.851C436.505 128.797 437.978 130.86 438.568 132.039L440.336 136.459C440.925 137.637 440.925 140.289 440.336 144.414C440.336 147.95 440.336 150.308 440.336 151.486C439.746 152.076 440.041 154.138 441.22 157.674C442.398 160.621 443.282 162.389 443.872 162.978V163.862C443.872 164.451 443.872 165.041 443.872 165.63C444.461 165.63 444.756 165.925 444.756 166.514C444.166 167.103 443.872 167.692 443.872 168.282C443.872 168.871 443.577 169.46 442.988 170.05C442.398 171.228 441.514 172.702 440.336 174.47C439.746 175.648 439.157 176.827 438.568 178.006L435.916 179.774C435.326 180.952 434.148 182.425 432.38 184.193C431.201 185.961 430.612 187.14 430.612 187.729C430.612 188.908 430.023 191.56 428.844 195.685C427.665 199.81 427.076 202.168 427.076 202.757C425.897 204.525 422.656 207.766 417.352 212.481C412.638 216.606 409.691 219.258 408.512 220.436L409.396 208.061C408.218 207.471 407.334 206.882 406.745 206.293C406.155 206.293 405.861 206.293 405.861 206.293C405.861 205.704 405.566 205.409 404.977 205.409C404.387 205.409 404.093 205.114 404.093 204.525C402.914 205.114 402.03 206.587 401.441 208.945C400.851 211.302 399.967 212.481 398.789 212.481C398.199 213.07 396.137 213.659 392.601 214.249C389.654 214.838 387.886 215.427 387.297 216.017C386.708 216.017 385.824 216.606 384.645 217.785L383.761 218.669L390.833 231.044C390.244 231.044 388.476 231.044 385.529 231.044C382.582 230.455 380.52 230.16 379.341 230.16C378.163 230.75 376.1 231.339 373.153 231.928C370.207 232.518 368.439 233.401 367.85 234.58C366.671 234.58 365.198 235.464 363.43 237.232C361.662 238.411 360.778 239.589 360.778 240.768C360.188 240.768 359.894 241.063 359.894 241.652C359.304 242.241 359.01 242.831 359.01 243.42L359.894 244.304L361.662 246.072C361.662 246.661 361.662 246.956 361.662 246.956C362.251 246.956 362.546 247.25 362.546 247.84C362.546 248.429 362.84 248.724 363.43 248.724V250.492V251.376C363.43 251.965 363.135 252.849 362.546 254.028C361.956 254.617 361.367 255.501 360.778 256.68L359.01 260.215C358.42 260.215 358.126 261.394 358.126 263.751C358.715 266.109 359.01 267.582 359.01 268.171C360.188 268.171 361.367 268.171 362.546 268.171C363.724 267.582 364.903 267.287 366.082 267.287C367.26 267.877 370.501 269.35 375.805 271.707C381.699 273.475 385.824 275.243 388.181 277.011C388.77 277.011 389.949 277.306 391.717 277.895C393.485 278.484 394.664 279.368 395.253 280.547C396.431 280.547 398.494 281.726 401.441 284.083C404.387 286.44 405.861 287.913 405.861 288.503C407.039 289.092 409.691 290.565 413.816 292.923C417.942 295.28 420.594 296.753 421.772 297.343C421.772 297.932 422.951 300.584 425.308 305.298C428.255 309.424 430.023 311.781 430.612 312.37C431.791 313.549 434.737 316.79 439.452 322.094C444.166 327.398 447.408 330.934 449.175 332.702H453.595C453.595 333.291 454.479 334.764 456.247 337.122C458.015 338.89 459.489 340.068 460.667 340.657C460.667 341.247 462.141 342.131 465.087 343.309C468.034 343.899 469.802 344.488 470.391 345.077C470.98 345.667 471.57 346.551 472.159 347.729C473.338 350.087 474.222 351.56 474.811 352.149C475.989 355.096 477.168 359.221 478.347 364.525C480.115 369.239 480.999 371.891 480.999 372.481V379.552C480.999 380.731 480.704 381.615 480.115 382.204C480.115 382.204 480.115 382.794 480.115 383.972V386.624C479.525 387.803 478.052 389.276 475.695 391.044C473.927 392.812 472.748 393.696 472.159 393.696C471.57 394.285 470.98 394.875 470.391 395.464C469.802 395.464 469.212 396.053 468.623 397.232L466.855 400.768C466.855 401.357 466.56 402.831 465.971 405.188C465.971 406.956 465.971 408.429 465.971 409.608V416.68C465.971 417.269 466.56 418.153 467.739 419.331C468.918 419.921 469.802 420.215 470.391 420.215C470.98 420.215 472.159 419.921 473.927 419.331C475.695 418.153 477.168 417.564 478.347 417.564H488.071C488.071 418.742 486.892 422.867 484.535 429.939C482.767 437.011 481.588 441.726 480.999 444.083C480.999 444.672 479.82 445.851 477.463 447.619C475.106 448.797 472.454 450.271 469.507 452.039C466.56 453.807 463.908 455.575 461.551 457.343C459.194 459.111 457.721 459.994 457.131 459.994L454.479 462.646C453.89 463.236 453.595 463.825 453.595 464.414C453.006 465.593 452.122 468.834 450.943 474.138C450.354 479.442 450.059 482.978 450.059 484.746C449.47 484.746 449.175 484.746 449.175 484.746C449.175 484.157 448.586 483.862 447.408 483.862C446.818 483.273 445.64 482.389 443.872 481.21C442.104 479.442 440.925 478.558 440.336 478.558H437.684H435.916C435.326 479.147 434.737 480.031 434.148 481.21C433.559 482.389 433.264 484.157 433.264 486.514C432.675 487.692 431.791 490.344 430.612 494.47C429.433 498.595 428.549 500.363 427.96 499.773C427.371 500.952 425.603 502.425 422.656 504.193C419.71 505.961 417.647 507.14 416.468 507.729C415.29 508.319 413.816 508.613 412.048 508.613C410.28 508.024 409.396 507.435 409.396 506.845C408.807 508.024 407.923 510.676 406.745 514.801C405.566 518.337 404.387 520.694 403.209 521.873C403.209 524.23 402.03 525.409 399.673 525.409L397.905 523.641C396.726 522.462 396.137 521.578 396.137 520.989C395.547 520.989 394.958 520.105 394.369 518.337C393.78 515.98 393.19 514.801 392.601 514.801C392.601 513.622 391.422 512.149 389.065 510.381C387.297 508.024 386.413 506.551 386.413 505.961C385.234 506.551 384.35 507.435 383.761 508.613C383.172 509.203 382.582 509.497 381.993 509.497C381.993 509.497 381.404 510.676 380.225 513.033L378.457 516.569C378.457 517.158 378.752 519.221 379.341 522.757C379.931 525.704 380.52 527.766 381.109 528.945C382.288 531.302 383.761 532.481 385.529 532.481C386.118 533.07 386.708 533.365 387.297 533.365H389.065L388.181 539.552C387.002 539.552 384.94 539.552 381.993 539.552C379.636 538.963 377.868 538.669 376.689 538.669C376.1 538.669 374.627 539.552 372.269 541.32C370.501 542.499 369.323 543.088 368.734 543.088C367.555 542.499 366.376 541.615 365.198 540.436C364.608 540.436 363.724 539.847 362.546 538.669L361.662 537.785C360.483 537.785 359.304 538.374 358.126 539.552C357.536 540.731 357.242 541.615 357.242 542.204L355.474 568.724C354.885 568.134 354.295 567.25 353.706 566.072C353.706 564.893 353.411 564.304 352.822 564.304C352.233 563.715 351.643 563.42 351.054 563.42C349.875 563.42 349.286 563.125 349.286 562.536C348.697 562.536 348.107 562.536 347.518 562.536C347.518 563.125 347.223 563.42 346.634 563.42H345.75C345.161 563.42 344.277 564.009 343.098 565.188C341.919 566.366 341.33 567.25 341.33 567.84C341.33 568.429 341.919 569.608 343.098 571.376C344.277 573.144 344.866 574.617 344.866 575.796V583.751C344.277 583.751 342.803 583.457 340.446 582.867C338.089 582.867 336.616 582.573 336.026 581.983C336.026 581.394 335.732 580.805 335.142 580.215C333.964 579.037 333.374 578.448 333.374 578.448C332.785 578.448 331.901 576.974 330.722 574.028C330.133 571.67 329.838 570.197 329.838 569.608H326.303H321.883C320.115 571.376 319.231 573.144 319.231 574.912C319.231 575.501 319.525 576.09 320.115 576.68C321.293 577.858 321.883 578.448 321.883 578.448V580.215L320.999 581.099C320.409 582.278 318.641 584.046 315.695 586.403C313.338 589.35 311.57 591.413 310.391 592.591C309.802 591.413 308.328 589.35 305.971 586.403C304.203 583.457 303.319 581.394 303.319 580.215L301.551 579.331H299.783C298.605 580.51 297.426 582.573 296.247 585.519C295.658 588.466 295.363 590.529 295.363 591.707C294.774 592.886 293.89 594.359 292.711 596.127C291.533 597.895 290.649 598.779 290.059 598.779C288.881 599.958 286.229 602.315 282.104 605.851C278.568 609.976 276.21 612.628 275.032 613.807C273.853 613.807 271.791 614.101 268.844 614.691C265.897 615.28 263.835 615.869 262.656 616.459C262.067 616.459 260.299 616.164 257.352 615.575C254.995 615.575 253.227 615.575 252.048 615.575H244.093C242.914 614.985 240.557 612.333 237.021 607.619C233.485 603.494 231.128 600.547 229.949 598.779C228.77 597.6 227.886 594.359 227.297 589.055C226.708 584.341 226.708 581.394 227.297 580.215L222.877 579.331C223.466 580.51 223.172 582.867 221.993 586.403C220.815 590.529 219.636 593.18 218.457 594.359C218.457 594.948 216.689 595.538 213.153 596.127C210.207 596.716 208.144 597.011 206.966 597.011C206.376 597.011 204.019 596.716 199.894 596.127C195.768 596.127 193.411 596.127 192.822 596.127C190.465 596.127 189.286 597.6 189.286 600.547C188.697 600.547 187.813 601.431 186.634 603.199C185.455 605.556 184.571 607.324 183.982 608.503L182.214 610.271L180.446 612.039C179.857 611.449 179.268 609.976 178.678 607.619C178.089 605.262 177.5 603.788 176.91 603.199C176.321 602.02 175.732 600.842 175.142 599.663C175.142 598.484 174.553 597.306 173.374 596.127C172.196 594.359 171.017 592.886 169.838 591.707C169.249 591.707 167.481 590.823 164.535 589.055C161.588 587.877 159.82 587.287 159.231 587.287C158.052 586.109 156.873 585.225 155.695 584.635C154.516 584.046 153.338 583.751 152.159 583.751C151.57 582.573 150.096 580.805 147.739 578.448C145.971 576.68 144.792 575.501 144.203 574.912ZM260.004 608.503C258.236 608.503 257.058 609.681 256.468 612.039C256.468 614.985 257.352 616.459 259.12 616.459C260.888 616.459 261.772 614.985 261.772 612.039C262.361 609.681 261.772 608.503 260.004 608.503ZM275.916 605.851L278.568 601.431H275.916V605.851ZM193.706 581.099C191.938 581.099 191.054 582.278 191.054 584.635C191.054 587.582 191.938 589.055 193.706 589.055C194.885 589.645 195.474 588.466 195.474 585.519C195.474 583.162 194.885 581.689 193.706 581.099ZM200.778 581.983L205.198 574.028H201.662L200.778 581.983ZM237.905 580.215L243.209 581.099V576.68C242.619 576.09 241.735 574.617 240.557 572.26C239.967 570.492 239.378 569.608 238.789 569.608L237.905 580.215ZM272.38 578.448H277.684V575.796C277.094 575.796 276.21 575.206 275.032 574.028C274.443 572.849 273.559 572.26 272.38 572.26V578.448ZM232.601 550.16C230.833 550.16 229.949 551.339 229.949 553.696C229.949 556.053 230.833 557.232 232.601 557.232C234.958 557.232 236.137 556.053 236.137 553.696C236.137 551.339 234.958 550.16 232.601 550.16ZM143.319 536.901C140.962 536.901 139.489 538.374 138.899 541.32C138.899 543.678 140.078 544.856 142.435 544.856C143.614 544.856 144.203 543.678 144.203 541.32C144.792 538.374 144.498 536.901 143.319 536.901ZM184.866 544.856C184.866 544.267 185.455 543.678 186.634 543.088C187.813 541.91 188.402 540.731 188.402 539.552C188.402 538.963 188.402 538.079 188.402 536.901C188.991 535.133 189.286 533.659 189.286 532.481H184.866V544.856ZM308.623 539.552H313.043L313.927 532.481H309.507L308.623 539.552ZM47.8495 495.354H52.2694C52.2694 494.175 51.9748 492.702 51.3854 490.934C51.3854 488.576 51.3854 487.103 51.3854 486.514L47.8495 482.978V495.354ZM172.49 358.337H183.982V354.801C183.393 354.212 182.803 353.622 182.214 353.033C181.625 351.855 181.036 351.265 180.446 351.265H178.678C178.089 351.265 177.5 351.265 176.91 351.265C176.91 350.676 176.616 350.381 176.026 350.381C175.437 350.381 174.848 350.676 174.258 351.265C173.669 351.265 173.08 351.265 172.49 351.265V358.337ZM408.512 371.597L410.28 369.829L412.048 368.061C412.638 367.471 413.227 366.293 413.816 364.525C414.406 362.757 414.7 361.284 414.7 360.105H409.396L408.512 371.597ZM185.75 324.746C182.803 324.746 180.152 325.925 177.794 328.282C177.205 328.871 176.616 329.755 176.026 330.934C175.437 332.112 174.848 332.996 174.258 333.586C173.669 334.175 173.374 334.764 173.374 335.354C172.785 335.943 172.49 336.532 172.49 337.122V339.773H181.33L185.75 324.746ZM155.695 323.862C154.516 323.862 153.043 324.746 151.275 326.514C150.686 327.103 149.802 328.282 148.623 330.05C148.034 331.818 147.444 332.996 146.855 333.586L154.811 334.47L155.695 323.862ZM293.595 335.354C293.595 335.943 294.185 336.827 295.363 338.006C296.542 338.595 297.426 339.184 298.015 339.773H300.667V335.354H293.595ZM397.021 332.702C395.842 332.112 394.958 332.996 394.369 335.354C394.369 337.122 394.958 337.711 396.137 337.122C399.083 335.354 399.378 333.88 397.021 332.702ZM403.209 326.514H407.629L408.512 318.558H404.093L403.209 326.514ZM276.8 315.022L285.64 315.906C285.64 313.549 285.345 312.076 284.756 311.486C284.166 310.308 282.693 308.834 280.336 307.066C278.568 305.298 277.389 304.12 276.8 303.53V315.022ZM263.54 272.591C263.54 273.18 263.835 274.654 264.424 277.011C265.603 278.779 266.487 279.958 267.076 280.547L271.496 284.967V279.663V273.475C271.496 271.118 270.317 269.939 267.96 269.939C267.371 269.939 266.781 269.645 266.192 269.055H264.424C263.835 269.055 263.54 268.761 263.54 268.171V272.591ZM139.783 261.983C138.605 261.983 137.721 263.162 137.131 265.519C137.131 267.877 137.721 269.055 138.899 269.055C141.846 269.645 143.319 268.761 143.319 266.403C143.908 264.046 142.73 262.573 139.783 261.983ZM234.369 255.796C234.369 256.385 233.78 256.974 232.601 257.564C231.422 258.153 230.833 258.742 230.833 259.331C230.244 260.51 229.654 262.573 229.065 265.519C228.476 267.877 228.181 269.645 228.181 270.823H233.485L234.369 255.796ZM185.75 260.215C183.393 260.215 181.92 261.689 181.33 264.635C181.33 266.993 182.509 268.171 184.866 268.171C186.634 268.761 187.518 267.877 187.518 265.519C188.107 262.573 187.518 260.805 185.75 260.215ZM231.717 239L236.137 237.232C236.726 236.643 237.315 235.464 237.905 233.696C239.083 231.928 239.673 230.75 239.673 230.16L232.601 229.276L231.717 239ZM304.203 231.044H311.275V225.74H304.203V231.044ZM282.988 206.293C281.809 205.114 280.925 205.409 280.336 207.177C280.336 208.945 280.925 210.123 282.104 210.713C283.872 209.534 284.756 208.65 284.756 208.061C284.756 206.882 284.166 206.293 282.988 206.293ZM305.971 195.685C305.971 196.274 305.676 197.158 305.087 198.337C305.087 199.516 305.087 200.694 305.087 201.873V204.525V206.293C305.087 206.882 305.382 207.177 305.971 207.177C307.739 207.177 308.623 205.998 308.623 203.641C308.623 203.052 308.623 202.168 308.623 200.989C309.212 199.81 309.507 198.632 309.507 197.453V192.149L305.971 195.685ZM321.883 190.381C321.883 191.56 322.177 192.739 322.767 193.917C323.356 195.685 323.945 196.569 324.535 196.569C325.124 196.569 326.303 196.274 328.071 195.685C330.428 195.096 332.196 194.506 333.374 193.917L336.026 191.265L325.419 181.541C324.829 182.131 323.945 183.604 322.767 185.961C322.177 187.729 321.883 189.203 321.883 190.381ZM348.402 179.774C348.991 178.595 348.402 178.006 346.634 178.006C344.866 177.416 344.277 177.711 344.866 178.89C344.866 180.657 345.161 181.541 345.75 181.541C346.929 181.541 347.813 180.952 348.402 179.774ZM375.805 154.138C374.627 154.138 374.037 155.022 374.037 156.79C374.037 157.969 374.627 158.558 375.805 158.558C376.984 158.558 377.573 157.969 377.573 156.79C377.573 155.611 376.984 154.727 375.805 154.138ZM290.943 127.619C289.175 127.619 287.997 128.797 287.408 131.155C287.408 133.512 288.292 134.691 290.059 134.691C292.417 134.691 293.595 133.512 293.595 131.155C294.185 128.797 293.301 127.619 290.943 127.619ZM290.943 119.663C289.175 119.663 288.292 121.136 288.292 124.083C288.292 126.44 289.175 127.619 290.943 127.619C293.301 127.619 294.479 126.44 294.479 124.083C294.479 121.136 293.301 119.663 290.943 119.663ZM73.4849 107.287H77.9048V100.215H73.4849V107.287ZM306.855 105.519C305.676 105.519 305.087 106.993 305.087 109.939C305.087 112.297 305.676 113.475 306.855 113.475C309.212 113.475 310.391 112.297 310.391 109.939C310.391 106.993 309.212 105.519 306.855 105.519ZM304.203 102.867C301.257 102.278 299.783 103.162 299.783 105.519C299.783 107.287 301.257 108.466 304.203 109.055C305.382 109.055 305.971 108.171 305.971 106.403C305.971 104.046 305.382 102.867 304.203 102.867ZM185.75 54.2487L186.634 48.9448H183.098L185.75 54.2487ZM267.96 58.6686L273.264 54.2487L268.844 53.3646L267.96 58.6686ZM185.75 23.3094C185.75 26.256 186.339 28.9079 187.518 31.2652L189.286 33.0332L191.054 34.8011C191.054 35.9798 191.349 38.3371 191.938 41.873C193.117 45.4089 193.706 47.7661 193.706 48.9448L198.126 49.8288L199.894 20.6575C198.715 21.2468 196.947 21.8361 194.59 22.4254C192.822 22.4254 191.643 22.7201 191.054 23.3094H185.75ZM174.258 40.989L179.562 41.873L174.258 37.4531V40.989ZM311.275 33.9172H315.695V30.3812H311.275V33.9172Z" fill="#02AB47"/>
</svg>
